<svg width="36" height="36" viewBox="0 0 36 36" fill="none" xmlns="http://www.w3.org/2000/svg">
<path d="M13.4678 8.97141V1.49634" stroke="white" stroke-width="2.99316" stroke-miterlimit="10"/>
<path d="M22.4316 8.97141V1.49634" stroke="white" stroke-width="2.99316" stroke-miterlimit="10"/>
<path d="M11.9639 14.9578H5.97754" stroke="white" stroke-width="2.99316" stroke-miterlimit="10"/>
<path d="M29.9229 14.9578H23.9365" stroke="white" stroke-width="2.99316" stroke-miterlimit="10"/>
<path d="M31.4113 14.958C31.4071 11.3891 29.9876 7.96752 27.464 5.44392C24.9403 2.92031 21.5188 1.50073 17.9499 1.49658C14.381 1.50073 10.9594 2.92031 8.43582 5.44392C5.91221 7.96752 4.49263 11.3891 4.48848 14.958C4.05252 14.956 3.62142 15.0497 3.22566 15.2325C2.82989 15.4154 2.47911 15.683 2.19811 16.0163C1.9171 16.3496 1.71272 16.7406 1.5994 17.1616C1.48609 17.5825 1.4666 18.0233 1.54233 18.4526C1.69206 19.1683 2.08732 19.8092 2.65968 20.2642C3.23205 20.7192 3.9455 20.9598 4.67653 20.9443H31.3173C32.0483 20.9598 32.7617 20.7192 33.3341 20.2642C33.9065 19.8092 34.3017 19.1683 34.4515 18.4526C34.5289 18.0153 34.5075 17.5662 34.3889 17.1383C34.2703 16.7103 34.0575 16.3143 33.766 15.9792C33.4745 15.6442 33.1117 15.3786 32.7043 15.2019C32.2969 15.0252 31.8551 14.9418 31.4113 14.958Z" stroke="white" stroke-width="2.99316" stroke-miterlimit="10"/>
<path d="M5.97754 20.9441H29.9229V22.5112C29.9022 25.673 28.6316 28.6982 26.3886 30.9266C24.1455 33.155 21.112 34.4056 17.9502 34.4055C14.7749 34.4055 11.7296 33.1441 9.48425 30.8988C7.23894 28.6535 5.97754 25.6082 5.97754 22.4329V20.8658V20.9441Z" stroke="white" stroke-width="2.99316" stroke-miterlimit="10"/>
</svg>
