<svg width="40" height="40" viewBox="0 0 40 40" fill="none" xmlns="http://www.w3.org/2000/svg">
<path d="M23.9848 11.2555L11.2568 23.9834L16.0298 28.7564L28.7577 16.0284L23.9848 11.2555Z" stroke="white" stroke-width="2.8" stroke-miterlimit="10"/>
<path d="M31.1333 15.2333C34.6495 15.2333 37.4999 12.3829 37.4999 8.86667C37.4999 5.35045 34.6495 2.5 31.1333 2.5C27.6171 2.5 24.7666 5.35045 24.7666 8.86667C24.7666 12.3829 27.6171 15.2333 31.1333 15.2333Z" stroke="white" stroke-width="2.8" stroke-miterlimit="10"/>
<path d="M8.86667 37.4999C12.3829 37.4999 15.2333 34.6495 15.2333 31.1333C15.2333 27.6171 12.3829 24.7666 8.86667 24.7666C5.35045 24.7666 2.5 27.6171 2.5 31.1333C2.5 34.6495 5.35045 37.4999 8.86667 37.4999Z" stroke="white" stroke-width="2.8" stroke-miterlimit="10"/>
<path d="M20 15.2333L15.2333 20L10.45 15.2333H7.26667C6.00094 15.2289 4.78856 14.723 3.89511 13.8264C3.00166 12.9299 2.49999 11.7157 2.5 10.45V7.26667L3.16667 7.93333C3.75683 8.56031 4.55739 8.94774 5.41526 9.02153C6.27313 9.09533 7.1281 8.85031 7.81667 8.33333C8.18757 8.03866 8.49141 7.66831 8.70794 7.24697C8.92446 6.82564 9.04868 6.36299 9.07234 5.88987C9.096 5.41674 9.01854 4.94401 8.84512 4.50318C8.67171 4.06234 8.40633 3.66354 8.06667 3.33333L7.26667 2.5H10.45C11.7157 2.49999 12.9299 3.00166 13.8264 3.89511C14.723 4.78856 15.2289 6.00094 15.2333 7.26667V10.45L20 15.2333Z" stroke="white" stroke-width="2.8" stroke-miterlimit="10"/>
<path d="M32.7333 24.7667C33.9991 24.7711 35.2114 25.277 36.1049 26.1736C36.9983 27.0701 37.5 28.2843 37.5 29.55V32.7333L36.8333 32.0667C36.2432 31.4397 35.4426 31.0523 34.5847 30.9785C33.7269 30.9047 32.8719 31.1497 32.1833 31.6667C31.8124 31.9613 31.5086 32.3317 31.2921 32.753C31.0755 33.1744 30.9513 33.637 30.9277 34.1101C30.904 34.5833 30.9815 35.056 31.1549 35.4968C31.3283 35.9377 31.5937 36.3365 31.9333 36.6667L32.7333 37.4667H29.55C28.2843 37.4667 27.0701 36.965 26.1736 36.0716C25.277 35.1781 24.7711 33.9657 24.7667 32.7V29.55L20 24.7667L24.7667 20L29.55 24.7667H32.7333Z" stroke="white" stroke-width="2.8" stroke-miterlimit="10"/>
</svg>
